# xmcd
#
# Track frame offsets: 
#        150
#        16160
#        30892
#        45345
#        63317
#        77417
#        93212
#        107732
#        125132
#        137482
#        152612
#        165465
#
# Disc length: 2436 seconds
#
# Revision: 1
# Processed by: cddbd v1.4PL0 Copyright (c) Steve Scherf et al.
# Submitted via: ExactAudioCopy v0.90b4
#
DISCID=7e09820c
DTITLE=Pam Tillis - Greatest Hits-1998
DYEAR=1997
DGENRE=Country
TTITLE0=Land Of The Living
TTITLE1=All The Good Ones Are Gone
TTITLE2=Don't Tell Me What To Do
TTITLE3=Maybe It Was Memphis
TTITLE4=Shake The Sugar Tree
TTITLE5=Let That Pony Run
TTITLE6=Cleopatra, Queen Of Denial
TTITLE7=Spilled Perfume
TTITLE8=When You Walk In The Room
TTITLE9=In Between Dances
TTITLE10=Mi Vida Loca (My Crazy Life)
TTITLE11=The River And The Highway
EXTD=
EXTT0=
EXTT1=
EXTT2=
EXTT3=
EXTT4=
EXTT5=
EXTT6=
EXTT7=
EXTT8=
EXTT9=
EXTT10=
EXTT11=
PLAYORDER=
